<?xml version="1.0" encoding="utf-8"?>
<!-- Generator: Adobe Illustrator 19.2.1, SVG Export Plug-In . SVG Version: 6.00 Build 0)  -->
<svg version="1.1" id="Lager_1" xmlns="http://www.w3.org/2000/svg" xmlns:xlink="http://www.w3.org/1999/xlink" x="0px" y="0px"
	 viewBox="0 0 320.2 60" style="enable-background:new 0 0 320.2 60;" xml:space="preserve">
<style type="text/css">
	.st0{fill:#C62779;}
</style>
<g>
	<g>
		<path class="st0" d="M13.4,0v18.5l10.3-9.9h13.7l-8.2,7.7l11.8,17H27.1l-6.6-9.7l-7.2,7v2.7H0V0H13.4z"/>
		<path class="st0" d="M57.1,18.3h7.8c2.9,0,4.1-0.6,4.1-1.5s-0.7-1.5-2.6-1.5h-8.2c-3.4,0-7.5,1-9.7,2.4L44.6,11
			c1.4-1.2,6.9-2.4,14.1-2.4h13.6c7.7,0,10.5,3.5,10.5,8.2V28c0,1.9,0.6,3.9,1.5,5.1v0.2H71c-0.4-0.7-0.9-2.3-1.1-3.4h-0.2
			c-0.9,1.1-3.7,3.4-9.1,3.4h-5.7c-5.8,0-10.2-2.8-10.2-7.6C44.5,20.7,49.6,18.3,57.1,18.3z M61.9,26.8h2.6c2.7,0,4-0.8,4.6-1.8
			v-2.8c-0.5,0.3-1.8,0.7-4,0.7H62c-2.2,0-3.4,0.8-3.4,2C58.5,26.2,59.7,26.8,61.9,26.8z"/>
		<path class="st0" d="M105.8,8.6v24.9c0,6.4-2.3,8.7-9.1,8.7h-2.2c-4,0-7.2-0.5-10-1.7l3.8-6.8h0.2c0.3,0.5,1.3,0.9,2,0.9
			c1.3,0,2-0.5,2-1.7V8.7L105.8,8.6L105.8,8.6z M93.4,0h11.4v7H93.4V0z"/>
		<path class="st0" d="M128.2,8.1h11.3c5.4,0,11,1.1,13.5,2l-3.3,5.8c-2.7-1-6-1.5-10.1-1.5h-8.9c-1.9,0-2.4,0.4-2.4,1.3
			c0,0.7,0.5,1.1,2.4,1.1h10.7c8.9,0,13.1,3,13.1,8.5c0,5.1-4.5,8.4-14,8.4h-12.4c-6.7,0-12.1-0.9-14.7-2.4l3.7-6.3
			c2,1.4,5.5,2.3,10.7,2.3h10.4c2,0,2.6-0.4,2.6-1.3s-0.7-1.3-2.6-1.3h-10.9c-8.3,0-12.6-2.8-12.6-8.2
			C114.8,11.5,118.7,8.1,128.2,8.1z"/>
		<path class="st0" d="M173.4,18.3h7.8c2.9,0,4.1-0.6,4.1-1.5s-0.7-1.5-2.6-1.5h-8.2c-3.4,0-7.5,1-9.7,2.4l-3.9-6.7
			c1.4-1.2,6.9-2.4,14.1-2.4h13.6c7.7,0,10.5,3.5,10.5,8.2V28c0,1.9,0.6,3.9,1.5,5.1v0.2h-13.3c-0.4-0.7-0.9-2.3-1.1-3.4H186
			c-0.9,1.1-3.7,3.4-9.1,3.4H171c-5.8,0-10.2-2.8-10.2-7.6C160.8,20.7,165.9,18.3,173.4,18.3z M178.2,26.8h2.6c2.7,0,4-0.8,4.6-1.8
			v-2.8c-0.5,0.3-1.8,0.7-4,0.7h-3.2c-2.2,0-3.4,0.8-3.4,2C174.8,26.2,176,26.8,178.2,26.8z"/>
		<path class="st0" d="M221.4,8.1h11.3c5.4,0,11,1.1,13.5,2L243,16c-2.7-1-6-1.5-10.1-1.5H224c-1.9,0-2.4,0.4-2.4,1.3
			c0,0.7,0.5,1.1,2.4,1.1h10.7c8.9,0,13.1,3,13.1,8.5c0,5.1-4.5,8.4-14,8.4h-12.4c-6.7,0-12.1-0.9-14.7-2.4l3.7-6.3
			c2,1.4,5.5,2.3,10.7,2.3h10.4c2,0,2.6-0.4,2.6-1.3s-0.7-1.3-2.6-1.3h-10.9c-8.3,0-12.6-2.8-12.6-8.2C208,11.5,211.9,8.1,221.4,8.1
			z"/>
	</g>
	<g>
		<path class="st0" d="M172.1,42.5v3.7h0.1c3.1-2.4,7.3-4.1,11.1-4.1c3.4,0,5.1,0.4,7.3,1.2l-3.2,5.3c-1.9-0.9-3.9-1.4-6.5-1.4
			c-2.9,0-6,1-8.7,2.5V60h-9.5V42.4L172.1,42.5L172.1,42.5L172.1,42.5z"/>
		<path class="st0" d="M205.4,42.1h1.4c9.3,0,14,3.7,14,9.1s-4.7,9.1-14,9.1h-1.4c-9.3,0-14-3.7-14-9.1
			C191.3,45.9,196,42.1,205.4,42.1z M206.1,55.8c3.2,0,4.9-1.5,4.9-4.6s-1.7-4.6-4.9-4.6s-4.9,1.5-4.9,4.6
			C201.1,54.4,203,55.8,206.1,55.8z"/>
		<path class="st0" d="M235,42.1h8c3.9,0,7.8,0.8,9.6,1.5l-2.3,4.1c-1.9-0.7-4.3-1.1-7.2-1.1h-6.3c-1.4,0-1.7,0.3-1.7,0.9
			c0,0.5,0.4,0.8,1.7,0.8h7.6c6.3,0,9.3,2.2,9.3,6c0,3.6-3.2,6-9.9,6H235c-4.7,0-8.6-0.7-10.4-1.7l2.6-4.5c1.4,1,3.9,1.7,7.6,1.7
			h7.4c1.5,0,1.9-0.3,1.9-0.9s-0.5-1-1.9-1h-7.8c-5.9,0-8.9-2-8.9-5.8C225.5,44.5,228.2,42.1,235,42.1z"/>
		<path class="st0" d="M271.6,42.1h1.4c9.3,0,14,3.7,14,9.1s-4.7,9.1-14,9.1h-1.4c-9.3,0-14-3.7-14-9.1
			C257.5,45.9,262.3,42.1,271.6,42.1z M272.3,55.8c3.2,0,4.9-1.5,4.9-4.6s-1.7-4.6-4.9-4.6c-3.2,0-4.9,1.5-4.9,4.6
			C267.4,54.4,269.2,55.8,272.3,55.8z"/>
		<path class="st0" d="M301.5,42.5v3.7h0.1c3.1-2.4,7.3-4.1,11.1-4.1c3.4,0,5.1,0.4,7.3,1.2l-3.2,5.3c-1.9-0.9-3.9-1.4-6.5-1.4
			c-2.9,0-6,1-8.7,2.5V60h-9.5V42.4L301.5,42.5L301.5,42.5L301.5,42.5z"/>
	</g>
</g>
</svg>
