<?xml version="1.0" encoding="utf-8"?>
<!-- Generator: Adobe Illustrator 19.2.1, SVG Export Plug-In . SVG Version: 6.00 Build 0)  -->
<svg version="1.1" id="Lager_1" xmlns="http://www.w3.org/2000/svg" xmlns:xlink="http://www.w3.org/1999/xlink" x="0px" y="0px"
	 viewBox="0 0 307.7 298.2" style="enable-background:new 0 0 307.7 298.2;" xml:space="preserve">
<style type="text/css">
	.st0{fill:url(#SVGID_1_);}
	.st1{fill:url(#SVGID_2_);}
	.st2{fill:url(#SVGID_3_);}
	.st3{fill:url(#SVGID_4_);}
	.st4{fill:url(#SVGID_5_);}
	.st5{fill:url(#SVGID_6_);}
	.st6{fill:url(#SVGID_7_);}
	.st7{fill:url(#SVGID_8_);}
	.st8{fill:url(#SVGID_9_);}
	.st9{fill:url(#SVGID_10_);}
	.st10{fill:url(#SVGID_11_);}
	.st11{fill:url(#SVGID_12_);}
	.st12{fill:url(#SVGID_13_);}
	.st13{fill:url(#SVGID_14_);}
	.st14{fill:url(#SVGID_15_);}
	.st15{fill:url(#SVGID_16_);}
	.st16{fill:url(#SVGID_17_);}
	.st17{fill:url(#SVGID_18_);}
	.st18{fill:url(#SVGID_19_);}
	.st19{fill:url(#SVGID_20_);}
	.st20{fill:url(#SVGID_21_);}
	.st21{fill:url(#SVGID_22_);}
	.st22{fill:url(#SVGID_23_);}
	.st23{fill:url(#SVGID_24_);}
	.st24{fill:url(#SVGID_25_);}
	.st25{fill:url(#SVGID_26_);}
	.st26{fill:url(#SVGID_27_);}
	.st27{fill:url(#SVGID_28_);}
	.st28{fill:url(#SVGID_29_);}
	.st29{fill:url(#SVGID_30_);}
	.st30{fill:url(#SVGID_31_);}
	.st31{fill:url(#SVGID_32_);}
</style>
<g>
	<g>
		
			<radialGradient id="SVGID_1_" cx="157.2878" cy="211.8277" r="125.7048" gradientTransform="matrix(1 0 0 -1 0 299.09)" gradientUnits="userSpaceOnUse">
			<stop  offset="0" style="stop-color:#110E0D"/>
			<stop  offset="0.7" style="stop-color:#C61E5E"/>
			<stop  offset="1" style="stop-color:#931D3E"/>
		</radialGradient>
		<path class="st0" d="M151.7,143c-20.9-6.7-32.6-31.4-40.6-51.9c-6.8-17.4-13.9-39.6-4.5-55.7c14.2-24.3,51.2-23.6,76.7-35.4
			c12.7,1.7,19.5,16.6,29.3,24.8c9.3,7.8,22.6,12.4,27.9,23.3c6.6,13.8,8.4,32.7,0.7,45.9C224.1,123.4,175,150.5,151.7,143z"/>
		
			<radialGradient id="SVGID_2_" cx="84.396" cy="173.042" r="131.8527" gradientTransform="matrix(1 0 0 -1 0 299.09)" gradientUnits="userSpaceOnUse">
			<stop  offset="0" style="stop-color:#110E0D"/>
			<stop  offset="0.61" style="stop-color:#C61E5E"/>
			<stop  offset="1" style="stop-color:#931D3E"/>
		</radialGradient>
		<path class="st1" d="M121.6,140.7c-13.1,10.6-44.1,10.2-67.7,8.3c-13-1-19.6-17.5-30.8-24.1c-4.9-2.9-12.3-2.2-15.8-6.8
			C-2.8,104.8,2.8,85,0.5,68.4c5-7.2,17.2-3.4,25.6-6C42.6,57.1,57.2,40,74.2,42.8c21.9,3.6,48.9,21.5,50.4,43.6
			C125.8,104.1,128.9,129.5,121.6,140.7z"/>
		
			<radialGradient id="SVGID_3_" cx="185.8654" cy="157.6336" r="164.8374" gradientTransform="matrix(1 0 0 -1 0 299.09)" gradientUnits="userSpaceOnUse">
			<stop  offset="0" style="stop-color:#110E0D"/>
			<stop  offset="0.65" style="stop-color:#C61E5E"/>
			<stop  offset="1" style="stop-color:#931D3E"/>
		</radialGradient>
		<path class="st2" d="M170.5,161c0.6-18.8,11.1-37.5,24.1-51.2c18.2-19,46.7-24.6,70-36.9c12.3,0.9,22.5,12,30.1,21.8
			c6.7,8.7,8,20.6,12,30.8c2.1,18.1-2.8,36.5-7.5,54.2c-2.8,10.4-4.5,22.4-12,30.1c-13.5,13.8-34.1,23.7-53.4,22.6
			c-17.3-1-33.8-12.5-45.2-25.6C177.8,194.5,170,177.4,170.5,161z"/>
		
			<radialGradient id="SVGID_4_" cx="147.8769" cy="95.4459" r="142.7697" gradientTransform="matrix(1 0 0 -1 0 299.09)" gradientUnits="userSpaceOnUse">
			<stop  offset="0" style="stop-color:#110E0D"/>
			<stop  offset="0.55" style="stop-color:#C61E5E"/>
			<stop  offset="1" style="stop-color:#931D3E"/>
		</radialGradient>
		<path class="st3" d="M160,165.5c-16.2,10.7-25.9,28.9-37.6,44.4c-8.4,11.1-19.7,21.2-23.3,34.6c-2,7.5,1,15.6,1.5,23.3
			c3.9,7.1,12.5,10.5,19.6,14.3c11.3,6.1,23.4,11.5,36.1,13.5c14.9,2.4,30.9,3.4,45.1-1.5c7.3-2.5,11.6-10.8,18.8-13.5
			c4-1.6,8.5-1,12.8-1.5c8.1-6.3,8.6-18.7,11.3-28.6c4.5-16.2,9.1-32.9,8.3-49.7c-0.8-17.4-9-33.6-13.5-50.4
			c-12.4-8.6-30.3,1.5-45.1,4.5C182.2,157.3,169.8,159,160,165.5z"/>
		
			<radialGradient id="SVGID_5_" cx="94.9761" cy="162.4375" r="118.8695" gradientTransform="matrix(1 0 0 -1 0 299.09)" gradientUnits="userSpaceOnUse">
			<stop  offset="0" style="stop-color:#110E0D"/>
			<stop  offset="0.68" style="stop-color:#C61E5E"/>
			<stop  offset="1" style="stop-color:#931D3E"/>
		</radialGradient>
		<path class="st4" d="M120.8,180.6c-8.5-10-19.3-17.8-29.4-26.3c-14.9-12.7-26.4-34.8-45.9-36.9c-9.5-1-17.4,7.9-25.6,12.8
			c-3.4,2-6.5,4.5-9.8,6.8c-3.8,5.8-2.3,13.6-3.8,20.3c-1.5,6.8-6.4,13.4-5.3,20.3c0.8,5,6.4,8.1,8.3,12.8c1.6,4,1.5,8.5,2.3,12.8
			c5.7,6.6,17.7,3.2,24.8,8.3c5.7,4,7.1,12.5,12.8,16.6c15.5,11,35.2,17,54.2,18.1c18.4,1,36.1-7.5,54.2-11.3
			c6.2-5,12.2-14.2,9.8-21.8c-4.9-15.2-29.9-13-41.4-24.1C123.7,186.6,122.9,183.1,120.8,180.6z"/>
		
			<radialGradient id="SVGID_6_" cx="127.8859" cy="177.7217" r="174.0698" gradientTransform="matrix(1 0 0 -1 0 299.09)" gradientUnits="userSpaceOnUse">
			<stop  offset="0" style="stop-color:#110E0D"/>
			<stop  offset="0.53" style="stop-color:#C61E5E"/>
			<stop  offset="1" style="stop-color:#931D3E"/>
		</radialGradient>
		<path class="st5" d="M133.6,156.5c-28.4,8.1-68.2,3.7-86.5-19.6c-11.5-14.6-2.2-37.3,0.7-55.7c2.2-14.3,8.5-27.6,12.8-41.4
			c3.3-3.7,9.6-3.1,13.5-6c6.4-4.8,10.6-12,15.8-18.1c5.6-1.8,11.5,3,17.3,3.8c5.2,0.7,10.7-0.5,15.8,0.8c12.1,3,24.2,7.9,33.9,15.8
			c18,14.8,43.2,33.2,41.4,56.4C195.9,122.8,162.8,148.2,133.6,156.5z"/>
		
			<radialGradient id="SVGID_7_" cx="176.4593" cy="185.8393" r="128.6095" gradientTransform="matrix(1 0 0 -1 0 299.09)" gradientUnits="userSpaceOnUse">
			<stop  offset="0" style="stop-color:#110E0D"/>
			<stop  offset="0.52" style="stop-color:#C61E5E"/>
			<stop  offset="1" style="stop-color:#931D3E"/>
		</radialGradient>
		<path class="st6" d="M169,155.7c6-12.5,9.2-26.5,16.5-38.4c9.8-15.9,18.1-37.9,36.1-42.9c10.3-2.8,22.2,3.4,30.1,10.5
			c7.8,7,9,19,13.5,28.6c-0.9,2.7-5.8,1.6-7.5,3.8c-8.8,11.4-6,28.1-9,42.1c-9.1,16-24.2,29.3-40.6,37.6
			c-20.7,10.6-45.1,19.6-68.5,13.5C127.3,194,160,174.4,169,155.7z"/>
		
			<linearGradient id="SVGID_8_" gradientUnits="userSpaceOnUse" x1="226.7759" y1="72.5553" x2="195.7422" y2="122.4014" gradientTransform="matrix(1 0 0 -1 0 299.09)">
			<stop  offset="0" style="stop-color:#FFFFFF"/>
			<stop  offset="1" style="stop-color:#C4175D"/>
		</linearGradient>
		<path class="st7" d="M148.8,206.8c-7.8-4.7,18.2-4.2,47.6-28.8c17.8-14.9,21.8-21.1,35.8-25c4.2-1.2,16-8.3,13,0.8
			c-5.3,16.1-20,27-34.1,35.4C192.6,200.3,159.9,213.5,148.8,206.8z"/>
		
			<radialGradient id="SVGID_9_" cx="136.0276" cy="145.4101" r="141.4398" gradientTransform="matrix(1 0 0 -1 0 299.09)" gradientUnits="userSpaceOnUse">
			<stop  offset="0" style="stop-color:#110E0D"/>
			<stop  offset="0.67" style="stop-color:#C61E5E"/>
			<stop  offset="1" style="stop-color:#931D3E"/>
		</radialGradient>
		<path class="st8" d="M129.9,196.4c-5.1,5.7-14.2,8.4-21.8,7.5c-15.6-1.7-29.8-12.9-39.9-24.8c-11.1-13-15.9-30.7-19.6-47.4
			c-2.8-13-1-26.6-1.5-39.9c2.4-3.6,8.6-1.9,12-4.5c7.4-5.6,8.3-18.2,16.6-22.6c11.5-6.1,27.8-8,39.1-1.5
			c19.1,11.1,27.8,36.8,30.9,58.7C149.1,147,146.7,177.4,129.9,196.4z"/>
		
			<radialGradient id="SVGID_10_" cx="149.1996" cy="177.3742" r="140.6218" gradientTransform="matrix(1 0 0 -1 0 299.09)" gradientUnits="userSpaceOnUse">
			<stop  offset="0" style="stop-color:#110E0D"/>
			<stop  offset="0.56" style="stop-color:#C61E5E"/>
			<stop  offset="1" style="stop-color:#931D3E"/>
		</radialGradient>
		<path class="st9" d="M141.9,156.5c-11.8-19.7-16.6-44-15.8-67c0.5-14.4,2.6-31.1,12.8-41.4c9.8-9.9,25.9-12.7,39.9-12.8
			c15.7-0.1,30.1,9,45.2,13.5c2.3,3,0.6,7.5,0.7,11.3c0.6,14,3.5,28.4,0.7,42.1c-3.8,19-10.9,38.5-23.3,53.4
			c-8.9,10.7-20.7,24.2-34.6,23.3C156.1,178.3,147.7,166.3,141.9,156.5z"/>
		
			<radialGradient id="SVGID_11_" cx="139.6889" cy="162.9844" r="159.1685" gradientTransform="matrix(1 0 0 -1 0 299.09)" gradientUnits="userSpaceOnUse">
			<stop  offset="0" style="stop-color:#110E0D"/>
			<stop  offset="0.44" style="stop-color:#C61E5E"/>
			<stop  offset="1" style="stop-color:#931D3E"/>
		</radialGradient>
		<path class="st10" d="M133.4,174.3c-22.9-1.7-46-21.9-53.1-43.7c-3.7-11.4,4.6-23.6,8.9-34.8c2.8-7.3,5.7-14.9,10.8-20.7
			c10.3-11.7,23.8-21.3,38.6-26.3c9.6-3.3,20.4-1.3,30.6-1.9c13.8,6.2,22.5,21.7,28.2,35.7c6.3,15.6,12.7,35.3,5.2,50.3
			C190.5,156.9,160.2,176.3,133.4,174.3z"/>
		
			<radialGradient id="SVGID_12_" cx="134.6833" cy="188.0029" r="94.6123" gradientTransform="matrix(1 0 0 -1 0 299.09)" gradientUnits="userSpaceOnUse">
			<stop  offset="0" style="stop-color:#110E0D"/>
			<stop  offset="0.37" style="stop-color:#C61E5E"/>
			<stop  offset="1" style="stop-color:#931D3E"/>
		</radialGradient>
		<path class="st11" d="M137.6,142.4c-13.9,0.1-30.7-9.1-35.4-22.2c-3.7-10.6,3.5-23.5,11-31.9c9.4-10.5,25.4-12.2,38.1-18.3
			c8.7,1.9,13.4,12.5,16.9,20.7c3.9,9.1,8,20.6,3.8,29.6C166.2,132.6,151.3,142.3,137.6,142.4z"/>
		
			<radialGradient id="SVGID_13_" cx="137.4961" cy="183.4494" r="46.5363" gradientTransform="matrix(1 0 0 -1 0 299.09)" gradientUnits="userSpaceOnUse">
			<stop  offset="0" style="stop-color:#110E0D"/>
			<stop  offset="0.63" style="stop-color:#C61E5E"/>
			<stop  offset="1" style="stop-color:#931D3E"/>
		</radialGradient>
		<path class="st12" d="M130.1,133c-6.4-0.2-13.4-5-15.8-10.9c-3.3-8.1,3.3-17.3,4.9-26c2.7-5.6,6.9-16.8,12.4-13.9
			c6.4,3.4,15,3.5,19.6,9c5.6,6.8,9.4,17.5,6,25.6C153,126.5,140.6,133.3,130.1,133z"/>
		
			<radialGradient id="SVGID_14_" cx="140.7561" cy="183.7462" r="39.2644" gradientTransform="matrix(1 0 0 -1 0 299.09)" gradientUnits="userSpaceOnUse">
			<stop  offset="0" style="stop-color:#110E0D"/>
			<stop  offset="0.64" style="stop-color:#C61E5E"/>
			<stop  offset="1" style="stop-color:#931D3E"/>
		</radialGradient>
		<path class="st13" d="M135.7,124c-6.2-1-6.1-11.4-6.8-17.7c-0.5-4.4-0.7-9.6,1.9-13.2c2-2.7,6-3,9-4.5c6.6,2,10.8,11.2,10.2,18
			C149.3,114.1,143.1,125.2,135.7,124z"/>
		
			<radialGradient id="SVGID_15_" cx="143.2214" cy="198.1601" r="27.2473" gradientTransform="matrix(1 0 0 -1 0 299.09)" gradientUnits="userSpaceOnUse">
			<stop  offset="0" style="stop-color:#B91050"/>
			<stop  offset="0.48" style="stop-color:#852543"/>
			<stop  offset="1" style="stop-color:#110E0D"/>
		</radialGradient>
		<path class="st14" d="M135.7,124c-6.2-1,15.8-24.1,4.1-35.4c6.6,2,11.8,10.7,11.3,17.7C150.6,114.1,143.1,125.2,135.7,124z"/>
		
			<radialGradient id="SVGID_16_" cx="129.1597" cy="199.1083" r="47.4472" gradientTransform="matrix(1 0 0 -1 0 299.09)" gradientUnits="userSpaceOnUse">
			<stop  offset="0" style="stop-color:#B91050"/>
			<stop  offset="0.48" style="stop-color:#852543"/>
			<stop  offset="1" style="stop-color:#110E0D"/>
		</radialGradient>
		<path class="st15" d="M130.1,133c-6.4-0.2-13.2-5.1-15.8-10.9c-3.6-8.1,1.8-17.7,3.4-26.3c2.9-5.8,8.4-16.4,13.9-13.5
			c-24.1,24.8,27.1,29.4,25.6,34.6C153,126.5,140.6,133.3,130.1,133z"/>
		
			<radialGradient id="SVGID_17_" cx="159.4538" cy="213.1964" r="77.5745" gradientTransform="matrix(1 0 0 -1 0 299.09)" gradientUnits="userSpaceOnUse">
			<stop  offset="0" style="stop-color:#B91050"/>
			<stop  offset="0.46" style="stop-color:#852543"/>
			<stop  offset="1" style="stop-color:#110E0D"/>
		</radialGradient>
		<path class="st16" d="M137.6,144.2c-7.5-0.1-14-5.7-19.7-10.7c18.2-1.6,58.1-28.3,33.4-63.6c8.7,1.9,13.8,12.1,17.5,20.3
			c4.9,10.7,10.6,24.3,5.3,34.8C167.9,137.3,151.4,144.3,137.6,144.2z"/>
		
			<radialGradient id="SVGID_18_" cx="133.8641" cy="180.61" r="69.1133" gradientTransform="matrix(1 0 0 -1 0 299.09)" gradientUnits="userSpaceOnUse">
			<stop  offset="0" style="stop-color:#B91050"/>
			<stop  offset="0.48" style="stop-color:#852543"/>
			<stop  offset="1" style="stop-color:#110E0D"/>
		</radialGradient>
		<path class="st17" d="M118.4,168.7c-12.5-1.3-22.2-16.3-24.8-28.6c-1.8-8.3,5-16.3,7.5-24.4c3.3-0.7,3.5,6.7,6.7,7.5
			c10.4,2.7,22.6,3.5,33.9,4.5c12.5,1.1,24.8-3.8,37.2-5.6C189,145.5,143.8,171.3,118.4,168.7z"/>
		
			<radialGradient id="SVGID_19_" cx="139.6866" cy="172.0209" r="80.7147" gradientTransform="matrix(1 0 0 -1 0 299.09)" gradientUnits="userSpaceOnUse">
			<stop  offset="0" style="stop-color:#B91050"/>
			<stop  offset="0.48" style="stop-color:#852543"/>
			<stop  offset="1" style="stop-color:#110E0D"/>
		</radialGradient>
		<path class="st18" d="M160.9,183.4c14.8-2.6,25.7-20.2,28.6-35c2.2-11.2-6.8-21.8-10.2-32.7c-4.9,12-6.7,15.5-13.2,20.3
			c-8.9,6.6-20.9,8.5-32,9.4c-15.6,1.2-31.1-4-46.7-6C78.2,166.3,132.8,188.3,160.9,183.4z"/>
		
			<radialGradient id="SVGID_20_" cx="135.0821" cy="154.8207" r="80.873" gradientTransform="matrix(1 0 0 -1 0 299.09)" gradientUnits="userSpaceOnUse">
			<stop  offset="0" style="stop-color:#B91050"/>
			<stop  offset="0.48" style="stop-color:#852543"/>
			<stop  offset="1" style="stop-color:#110E0D"/>
		</radialGradient>
		<path class="st19" d="M132.7,204.1c-8.9,3.7-22.7-1.8-30.5-9c-14-12.9-13.8-35.6-20.7-53.4c5.2-4.1,10.4,8.2,16.2,11.3
			c7,3.7,14.4,7.1,22.2,8.7c10.8,2.1,22.2,2.3,33.1,0.7c10.6-1.5,21.4-4.2,30.5-9.8c3.9-2.4,6.5-6.5,9.8-9.8
			c11.4,8.6-10.8,27.3-20.7,37.6C161.8,191.5,148.9,197.3,132.7,204.1z"/>
		
			<radialGradient id="SVGID_21_" cx="121.3633" cy="187.7793" r="41.234" gradientTransform="matrix(1 0 0 -1 0 299.09)" gradientUnits="userSpaceOnUse">
			<stop  offset="0" style="stop-color:#C51B57"/>
			<stop  offset="0.62" style="stop-color:#C374A9"/>
			<stop  offset="1" style="stop-color:#C51B57"/>
		</radialGradient>
		<path class="st20" d="M97.1,111.9c-0.4-4.1,0.9-8.8,3.8-11.7c1.5-1.5,4.8-3.8,6.1-2.1c-0.2,1.6-2,2.3-2.4,3.8
			c-1.3,5.9-1.7,13.4,2.1,18.1c1.6,2,4.8,1.7,7.3,2.4c3.2,0.9,6.3,2,9.6,2.3c10.8,1.2,21.7,0.6,32.5-0.2c3.5-0.3,6.9-1.2,10.3-1.6
			c4.2-0.6,8.5-1.1,12.7-1.7c0.8,3.3-6.2,2.6-9.4,3.5c-5.4,1.5-10.9,2.6-16.5,3.3c-7.1,0.9-14.3,1.7-21.4,1.2
			c-4.5-0.4-8.8-1.9-13.2-2.8c-5.1-1.1-11.1-0.4-15.3-3.5C100.1,120.2,97.6,116.1,97.1,111.9z"/>
		
			<radialGradient id="SVGID_22_" cx="151.9101" cy="181.5557" r="55.1732" gradientTransform="matrix(1 0 0 -1 0 299.09)" gradientUnits="userSpaceOnUse">
			<stop  offset="0" style="stop-color:#C51B57"/>
			<stop  offset="0.62" style="stop-color:#C374A9"/>
			<stop  offset="1" style="stop-color:#C51B57"/>
		</radialGradient>
		<path class="st21" d="M182.4,94.3c-2.4-2.4-7.1-4.3-9.9-2.4c-2.2,1.5-1.3,5.2-1.2,7.8c0.2,6.4,4.5,12.4,4,18.8
			c-0.3,4.4-2,8.8-4.7,12.2c-1.8,2.2-4.5,3.4-7,4.7c-4,2-8.2,3.6-12.5,4.7c-4.8,1.3-9.8,2.1-14.8,2.4c-6.6,0.3-13.3-0.4-20-1.2
			c-5.3-0.6-10.5-2.4-15.8-2.6c-4.5-0.1-8.9,0.9-13.4,1.4c-0.2,3.4,6.6,1.7,9.9,2.4c5.7,1.2,11.4,2.2,17.2,3.1
			c4.9,0.7,9.8,1.6,14.8,1.6c4.5,0,8.9-1.3,13.4-1.4c2.3-0.1,4.6,0.7,6.8,0.2c4.5-0.9,8.5-3.3,12.4-5.6c3.7-2.2,6.9-5.2,10.4-7.8
			c2.9-2.1,6.8-3.3,8.7-6.3c1.4-2.3,0.4-5.4,1.2-8c0.9-2.9,3.6-5.2,4-8.2C186.6,104.7,186.2,98.1,182.4,94.3z"/>
		
			<radialGradient id="SVGID_23_" cx="129.284" cy="167.9902" r="62.0475" gradientTransform="matrix(1 0 0 -1 0 299.09)" gradientUnits="userSpaceOnUse">
			<stop  offset="0" style="stop-color:#C51B57"/>
			<stop  offset="0.62" style="stop-color:#C374A9"/>
			<stop  offset="1" style="stop-color:#C51B57"/>
		</radialGradient>
		<path class="st22" d="M75.5,140.4c0.9,3.6,4.7,5.8,7.3,8.5c4,4.1,8.6,7.7,12.9,11.5c3.9,1.6,8.4-0.3,12.5,0.7
			c3.6,0.9,6.7,3,10.1,4.5c2.9,0.3,5.6-1.7,8.5-1.9c4.4-0.2,8.6,1.5,12.9,1.6c6.3,0.1,12.7-0.6,19-1.6c6.7-1.1,13.6-2.3,20-4.7
			c4.3-1.6,8.7-3.4,12.2-6.3c3.3-2.7,6.6-6.1,8-10.1c0.4-1.3,1.1-3.3,0-4.2c-1.2-1-3.3,0.3-4.7,0.9c-5.9,2.8-9.5,9.2-15.1,12.7
			c-3.4,2.2-7.1,4-11.1,5.2c-2.5,0.8-5.2,0.7-7.7,1.2c-5.4,0.9-10.6,2.7-16,3c-6.4,0.4-12.9,0-19.3-1.2c-5.1-0.9-10.3-2-14.8-4.5
			c-5.7-3.2-9.8-8.7-14.8-12.9c-5.7-4.8-11.5-9.4-17.2-14.1C74.5,129.9,74.5,136.5,75.5,140.4z"/>
		
			<linearGradient id="SVGID_24_" gradientUnits="userSpaceOnUse" x1="-21.7305" y1="146.4609" x2="31.8624" y2="141.0165" gradientTransform="matrix(1 0 0 -1 0 299.09)">
			<stop  offset="0" style="stop-color:#FFFFFF"/>
			<stop  offset="1" style="stop-color:#C4175D"/>
		</linearGradient>
		<path class="st23" d="M30.4,128c-5.7,0.8-14,3.7-18,9c-4.8,6.3-2.5,15.7-4.5,23.3c-0.9,3.5-3.8,6.6-3.4,10.2
			c0.7,6.1,3.4,14.5,9.4,15.8c3.7,0.8,12.3-0.2,17.3-3c5.2-2.9-12.3-14.8-9-29.4C24.1,145.1,40,126.7,30.4,128z"/>
		
			<linearGradient id="SVGID_25_" gradientUnits="userSpaceOnUse" x1="85.6258" y1="31.8745" x2="95.026" y2="85.3677" gradientTransform="matrix(1 0 0 -1 0 299.09)">
			<stop  offset="0" style="stop-color:#FFFFFF"/>
			<stop  offset="1" style="stop-color:#C51F59"/>
		</linearGradient>
		<path class="st24" d="M53.5,208.6c0.6,6.5,14.8,13.8,24.1,17.1c11.7,4,24.7,1.8,37,1.8c15.4-0.1,25.4-10,21.4-10.7
			c-11.7-1.9-35.2,0.4-52.6-1.7C73.4,213.9,52.6,198.5,53.5,208.6z"/>
		
			<linearGradient id="SVGID_26_" gradientUnits="userSpaceOnUse" x1="275.7946" y1="32.454" x2="216.5901" y2="65.8793" gradientTransform="matrix(1 0 0 -1 0 299.09)">
			<stop  offset="0" style="stop-color:#FFFFFF"/>
			<stop  offset="1" style="stop-color:#C51F59"/>
		</linearGradient>
		<path class="st25" d="M224.7,267.9c-5.3-1.5-16.9,2.8-19.7-3.2c-4.2-8.8,16.9-19.8,20.6-39.2c2.4-12.9,2.8-24,9.8-20.7
			c7.9,3.8,4.6,21.7,2.9,32.4C236.5,248.2,234.6,262.5,224.7,267.9z"/>
		
			<linearGradient id="SVGID_27_" gradientUnits="userSpaceOnUse" x1="165.7885" y1="-31.0734" x2="168.7908" y2="25.7283" gradientTransform="matrix(1 0 0 -1 0 299.09)">
			<stop  offset="0" style="stop-color:#FFFFFF"/>
			<stop  offset="1" style="stop-color:#C51F59"/>
		</linearGradient>
		<path class="st26" d="M198.7,269.8c3.6,3.8,0.2,12.3-4.1,15.3c-15.5,10.8-50.5,3.5-56.4-5.3c-6.9-10.4,19.3-2.9,31.8-3.9
			C189.5,274.4,192,262.7,198.7,269.8z"/>
		
			<linearGradient id="SVGID_28_" gradientUnits="userSpaceOnUse" x1="39.8859" y1="244.0572" x2="76.9238" y2="212.023" gradientTransform="matrix(1 0 0 -1 0 299.09)">
			<stop  offset="0" style="stop-color:#FFFFFF"/>
			<stop  offset="1" style="stop-color:#C51F59"/>
		</linearGradient>
		<path class="st27" d="M52.1,91.4c1.7-2.9,6.7-1.1,9.3-3.1c6.6-5.1,7-16,13.8-20.9c7.2-5.2,15.3-6.7,25.9-7
			c-6.7,3.9-15.3,5.1-21.1,10.3c-6.6,5.9-7.9,17.7-14.1,22.6c-10,7.9-8.5,24.9-15.1,18.8C47.5,109.2,48.4,97.7,52.1,91.4z"/>
		
			<linearGradient id="SVGID_29_" gradientUnits="userSpaceOnUse" x1="58.8304" y1="282.7152" x2="74.8201" y2="250.7431" gradientTransform="matrix(1 0 0 -1 0 299.09)">
			<stop  offset="0" style="stop-color:#FFFFFF"/>
			<stop  offset="1" style="stop-color:#C51F59"/>
		</linearGradient>
		<path class="st28" d="M93,16.8c3.7,1.4,5.7,9.8,4.4,14.8c-5.3,20-35.5,22.1-44.9,42.8c-2.1-1.4,6.8-20.9,10.4-33.6
			c1.3-4.7,9.6-2.8,13.1-5.9C89.2,23.4,87.8,14.9,93,16.8z"/>
		
			<linearGradient id="SVGID_30_" gradientUnits="userSpaceOnUse" x1="136.0058" y1="294.2163" x2="135.2963" y2="234.2181" gradientTransform="matrix(1 0 0 -1 0 299.09)">
			<stop  offset="0" style="stop-color:#FFFFFF"/>
			<stop  offset="1" style="stop-color:#C51F59"/>
		</linearGradient>
		<path class="st29" d="M166.7,48.3c-6.2,3.1-11.7-2-19.4-0.5c-20,3.8-40.6,17.8-48,32.1c19-16.8,47.1-24.2,69.4-19.8
			C172.4,60.8,172.1,45.5,166.7,48.3z"/>
		
			<linearGradient id="SVGID_31_" gradientUnits="userSpaceOnUse" x1="205.4333" y1="292.7002" x2="183.9815" y2="247.1458" gradientTransform="matrix(1 0 0 -1 0 299.09)">
			<stop  offset="0" style="stop-color:#FFFFFF"/>
			<stop  offset="1" style="stop-color:#C51F59"/>
		</linearGradient>
		<path class="st30" d="M210.3,65.7c4.7,5.4,15-12.6,13.2-15.3c-8.2-0.6-20.3-12.3-41.7-14.4c-11.4-1.1-26.7,2.7-33.8,6.8
			C171.8,38,198.6,52.2,210.3,65.7z"/>
		
			<linearGradient id="SVGID_32_" gradientUnits="userSpaceOnUse" x1="310.8622" y1="216.9862" x2="241.2099" y2="202.8786" gradientTransform="matrix(1 0 0 -1 0 299.09)">
			<stop  offset="0" style="stop-color:#FFFFFF"/>
			<stop  offset="1" style="stop-color:#C51F59"/>
		</linearGradient>
		<path class="st31" d="M263.2,112.9c-3.6,0.8-17.1-2.8-17.3-7.5c-0.6-13.5-5-18.8-13.8-28.5c7.3-1.2,21.9,7.7,25.3,17.1
			C262.4,107.9,265.2,112.4,263.2,112.9z"/>
	</g>
</g>
</svg>
